<svg width="6" height="15" viewBox="0 0 6 15" fill="none" xmlns="http://www.w3.org/2000/svg">
<path d="M0.706879 11.6812H1.25375V7.71631H0.706879C0.378754 7.71631 0.160004 7.47021 0.160004 7.16943V5.85693C0.160004 5.55615 0.378754 5.31006 0.706879 5.31006H3.76938C4.07016 5.31006 4.31625 5.55615 4.31625 5.85693V11.6812H4.86313C5.16391 11.6812 5.41 11.9272 5.41 12.228V13.5132C5.41 13.8413 5.16391 14.0601 4.86313 14.0601H0.706879C0.378754 14.0601 0.160004 13.8413 0.160004 13.5132V12.228C0.160004 11.9272 0.378754 11.6812 0.706879 11.6812ZM2.785 0.0600586C3.85141 0.0600586 4.75375 0.962402 4.75375 2.02881C4.75375 3.12256 3.85141 3.99756 2.785 3.99756C1.69125 3.99756 0.816254 3.12256 0.816254 2.02881C0.816254 0.962402 1.69125 0.0600586 2.785 0.0600586Z" fill="#212529" fill-opacity="0.75"/>
</svg>
