<svg width="181" height="41" viewBox="0 0 181 41" fill="none" xmlns="http://www.w3.org/2000/svg">
<path d="M88.1 8.04014C88.1 6.57764 89.3 5.34014 90.8 5.34014C92.2625 5.34014 93.5 6.57764 93.5 8.04014C93.5 9.54014 92.2625 10.7401 90.8 10.7401C89.3 10.7401 88.1 9.54014 88.1 8.04014ZM97.625 8.11514C98.1125 8.56514 98.1125 9.35264 97.625 9.80264L94.1 13.3651V23.3401C94.1 24.0151 93.5375 24.5401 92.9 24.5401H92.3C91.625 24.5401 91.1 24.0151 91.1 23.3401V19.1401H90.5V23.3401C90.5 24.0151 89.9375 24.5401 89.3 24.5401H88.7C88.025 24.5401 87.5 24.0151 87.5 23.3401V13.3651L83.9375 9.80264C83.45 9.35264 83.45 8.56514 83.9375 8.11514C84.3875 7.62764 85.175 7.62764 85.625 8.11514L88.8875 11.3401H92.675L95.9375 8.11514C96.3875 7.62764 97.175 7.62764 97.625 8.11514Z" fill="white"/>
</svg>
