<svg width="17" height="17" viewBox="0 0 17 17" fill="none" xmlns="http://www.w3.org/2000/svg">
<g id="phone-call_2.svg" clip-path="url(#clip0_1_11)">
<g id="Group">
<g id="Group_2">
<g id="Group_3">
<path id="Vector" d="M14.156 2.84228C11.0314 -0.281441 5.96601 -0.280691 2.84229 2.844C-0.281426 5.96868 -0.280676 11.034 2.84401 14.1577C5.9687 17.2814 11.034 17.2807 14.1577 14.156C15.6579 12.6553 16.5005 10.6202 16.5 8.49828C16.4996 6.37672 15.6564 4.34222 14.156 2.84228ZM12.6157 11.6439C12.6154 11.6442 12.615 11.6446 12.6147 11.645V11.6423L12.2093 12.045C11.6851 12.5758 10.9216 12.7942 10.196 12.621C9.46489 12.4253 8.76989 12.1138 8.13732 11.6983C7.54964 11.3227 7.00501 10.8837 6.51332 10.389C6.06092 9.93987 5.65448 9.44675 5.29998 8.91696C4.91223 8.3469 4.60532 7.7259 4.38798 7.07162C4.13882 6.303 4.34529 5.45959 4.92132 4.89297L5.39598 4.41831C5.52795 4.28575 5.74239 4.28528 5.87492 4.41725C5.87526 4.41759 5.87564 4.41793 5.87598 4.41831L7.37464 5.91697C7.5072 6.04893 7.50767 6.26337 7.3757 6.3959C7.37536 6.39625 7.37501 6.39659 7.37464 6.39697L6.49464 7.27697C6.24214 7.52672 6.21039 7.92359 6.41998 8.21031C6.73826 8.64712 7.09048 9.05815 7.47332 9.43965C7.90017 9.86834 8.3642 10.2583 8.85998 10.605C9.14645 10.8048 9.53482 10.7711 9.78264 10.525L10.6333 9.661C10.7653 9.52843 10.9797 9.52797 11.1122 9.65993C11.1126 9.66028 11.1129 9.66062 11.1133 9.661L12.6146 11.165C12.7472 11.2969 12.7477 11.5113 12.6157 11.6439Z" fill="#4EAE3B"/>
</g>
</g>
</g>
</g>
<defs>
<clipPath id="clip0_1_11">
<rect width="16" height="16" fill="white" transform="translate(0.5 0.5)"/>
</clipPath>
</defs>
</svg>
